<svg xmlns="http://www.w3.org/2000/svg" width="460.865" height="531.792" viewBox="0 0 460.865 531.792">
  <g id="Page-1" transform="translate(0 0.003)">
    <g id="_021---Designer" data-name="021---Designer" transform="translate(0 -0.003)">
      <path id="Shape" d="M0,497.338a35.451,35.451,0,0,0,35.451,35.451H425.414a35.451,35.451,0,0,0,35.451-35.451V470.749a10.937,10.937,0,0,0-1.648-5.149l-42.665-59.735V222.591A26.588,26.588,0,0,0,389.963,196H373.23c1.25-3.5,2.393-6.984,3.5-10.467a96.666,96.666,0,0,0,45.564-58.663c13.019-50.314-17.522-101.647-18.833-103.81a8.863,8.863,0,0,0-16.4,3.7c-1.773,17.655-11.832,33.2-56.474,56.137a54.276,54.276,0,0,0-26.668,72.232c-6.7,11.805-12.957,23.54-18.452,34.9-3.838,7.9-7.321,15.785-10.635,23.664l.089-106.327a27.206,27.206,0,0,0-.78-3.545L250.25,16.089a20.464,20.464,0,0,0-39.493,0l-24.275,88.947a17.566,17.566,0,0,0-.319,2.357v78.781L143.028,82.063A17.921,17.921,0,0,0,119.9,72.6l-73.73,30.479a17.77,17.77,0,0,0-9.6,23.194l29.123,70.255a26.588,26.588,0,0,0-21.377,26.065V405.865L1.648,465.6A10.963,10.963,0,0,0,0,470.749Zm443.139,0a17.726,17.726,0,0,1-17.726,17.726H35.451a17.726,17.726,0,0,1-17.726-17.726V479.612H147l15.129,15.129a8.863,8.863,0,0,0,6.266,2.6H292.472a8.863,8.863,0,0,0,6.266-2.6l15.129-15.129H443.139ZM230.432,479.612h-58.37l-11.256-11.256,5.114-15.333H294.945l5.114,15.333L288.8,479.612Zm87.112-312.723,13.932,6.266c8.934,4.024,17.938,8.083,26.757,12.018-1.852,5.468-3.873,10.981-6.044,16.485-.886,2.384-1.941,4.795-2.934,7.2a187,187,0,0,1-40.919-17.5c-.993-.532-1.95-1.019-2.925-1.551,3.8-7.551,7.8-15.182,12.133-22.919Zm21.147-68.243c31.144-16.006,49.578-30.4,58.84-46.928a118.761,118.761,0,0,1,7.578,70.778A79.473,79.473,0,0,1,368,170.124c-9.8-4.378-19.578-8.765-29.247-13.117L320.5,148.791a36.949,36.949,0,0,1,18.2-50.155ZM297.71,205.752c.744.4,1.48.771,2.233,1.179a210.343,210.343,0,0,0,42.222,18.319,657.621,657.621,0,0,1-42.541,77.106H274.746v-35.69a416.647,416.647,0,0,1,22.963-60.914Zm-58.415,96.6V213.729a8.863,8.863,0,1,0-17.726,0v88.628H203.844V133.964a42.018,42.018,0,0,0,17.726,7.977v27.475a8.863,8.863,0,1,0,17.726,0V141.94a42.071,42.071,0,0,0,17.832-8.03l-.106,131.462c0,.1-.044.213-.044.31v.195l.044,36.479Zm17.291-195.54a27.774,27.774,0,0,1-52.211-.018l8.251-30.222a40.007,40.007,0,0,0,35.726,0ZM233.145,20.768l10.5,38.553a30.293,30.293,0,0,1-13.161,3.74,30.257,30.257,0,0,1-13.152-3.749l10.529-38.544a2.845,2.845,0,0,1,5.282,0ZM126.738,88.941l6.78,16.37-32.792,13.578a8.863,8.863,0,1,0,6.78,16.37L140.3,121.68l6.789,16.378-16.414,6.8a8.863,8.863,0,0,0,3.4,17.052,9,9,0,0,0,3.386-.674l16.405-6.8,6.78,16.378-32.792,13.578a8.863,8.863,0,0,0,3.4,17.052,9,9,0,0,0,3.386-.674l32.792-13.578,10.272,24.816,8.411,19.144v71.2h-57.36L52.929,119.464ZM62.04,222.591a8.863,8.863,0,0,1,8.863-8.863h1.923l36.745,88.628h-3.217a8.863,8.863,0,0,0,0,17.726H354.511a8.863,8.863,0,0,0,0-17.726H320.523a594.7,594.7,0,0,0,45.892-88.628h23.548a8.863,8.863,0,0,1,8.863,8.863V399.847H62.04Zm-4.3,194.981H403.124l31.658,44.314H316.588l-6.842-20.526a8.863,8.863,0,0,0-8.411-6.062H159.53a8.863,8.863,0,0,0-8.411,6.062l-6.842,20.526H26.083Z" transform="translate(0 -0.997)" fill="#9ecc3b"/>
      <path id="Shape-2" data-name="Shape" d="M48.879,67.756a8.863,8.863,0,0,0,4.715-1.365,66.471,66.471,0,0,0,29.4-44.7,8.863,8.863,0,0,0-17.637-1.773A49.215,49.215,0,0,1,44.085,51.395a8.863,8.863,0,0,0,4.75,16.352Z" transform="translate(314.202 85.09)" fill="#9ecc3b"/>
    </g>
  </g>
</svg>
