<svg xmlns="http://www.w3.org/2000/svg" width="426.289" height="332.856" viewBox="0 0 426.289 332.856">
  <g id="_003-responsive-design" data-name="003-responsive-design" transform="translate(0 0)">
    <path id="Path_7" data-name="Path 7" d="M413.773,86.759H347.036c-7.129,0-13.348,5.383-13.348,12.515v14.18H260.277c-7.129,0-13.348,5.383-13.348,12.515V266.95H13.347a1.476,1.476,0,0,1-.833-.833v-26.7H233.582V226.908H12.515V12.515c0-.231.6,0,.833,0H373.731c.231,0,0-.231,0,0V72.579h12.515V12.515A12.243,12.243,0,0,0,373.731,0H13.347C6.218,0,0,5.382,0,12.515v253.6a13.671,13.671,0,0,0,13.348,13.348H153.5v40.875H126.8v12.515H260.277V320.341H232.749V279.466h14.18v13.348a13.671,13.671,0,0,0,13.348,13.348H373.731c7.132,0,12.515-6.218,12.515-13.348V246.1h27.528c7.132,0,12.515-6.218,12.515-13.348V99.273a12.243,12.243,0,0,0-12.515-12.515ZM220.234,320.341H166.012V279.465h54.223Zm126.8-221.067h66.738c.231,0,0-.231,0,0v14.18H346.2V99.274C346.2,99.043,346.808,99.274,347.036,99.274Zm-.833,26.7h67.57v80.918H346.2Zm27.528,167.677H260.277a1.486,1.486,0,0,1-.833-.833V279.465H373.731v13.348C373.731,293.044,373.962,293.646,373.731,293.646Zm0-26.7H259.444V125.969c0-.231.6,0,.833,0h73.411v106.78A13.671,13.671,0,0,0,347.036,246.1h26.7Zm40.043-33.369H347.036a1.486,1.486,0,0,1-.833-.833V219.4h67.57v13.348C413.774,232.98,414,233.582,413.774,233.582Zm0,0" fill="#9ecc3b"/>
    <path id="Path_8" data-name="Path 8" d="M192.375,240.469h13.348v12.515H192.375Zm0,0" transform="translate(-32.205 -40.256)" fill="#9ecc3b"/>
    <path id="Path_9" data-name="Path 9" d="M224.438,240.469h13.348v12.515H224.438Zm0,0" transform="translate(-37.572 -40.256)" fill="#9ecc3b"/>
    <path id="Path_10" data-name="Path 10" d="M256.5,240.469h13.348v12.515H256.5Zm0,0" transform="translate(-42.94 -40.256)" fill="#9ecc3b"/>
    <path id="Path_11" data-name="Path 11" d="M44.577,64.6V44.577H65.431V32.062H32.063V64.6Zm0,0" transform="translate(-5.367 -5.367)" fill="#9ecc3b"/>
    <path id="Path_12" data-name="Path 12" d="M320.625,186.175H333.14V172.827h14.18V160.312h-26.7Zm0,0" transform="translate(-53.675 -26.837)" fill="#9ecc3b"/>
    <path id="Path_13" data-name="Path 13" d="M424.828,160.313v25.862h12.515V172.828h14.18V160.313Zm0,0" transform="translate(-71.119 -26.837)" fill="#9ecc3b"/>
  </g>
</svg>
