<?xml version="1.0" encoding="UTF-8" standalone="no"?>
<!DOCTYPE svg PUBLIC "-//W3C//DTD SVG 1.1//EN" "http://www.w3.org/Graphics/SVG/1.1/DTD/svg11.dtd">
<svg width="100%" height="100%" viewBox="0 0 494 102" version="1.1" xmlns="http://www.w3.org/2000/svg" xmlns:xlink="http://www.w3.org/1999/xlink" xml:space="preserve" xmlns:serif="http://www.serif.com/" style="fill-rule:evenodd;clip-rule:evenodd;stroke-linejoin:round;stroke-miterlimit:2;">
    <g transform="matrix(1,0,0,1,-174.271,-246.846)">
        <g transform="matrix(1.68564,0,0,1.68564,-288.616,-254.864)">
            <g transform="matrix(1,0,0,1,521.304,344.371)">
                <path d="M0,-33.499C-5.008,-33.499 -9.339,-30.521 -11.233,-27.543C-12.452,-31.266 -15.497,-33.499 -20.302,-33.499C-25.31,-33.499 -29.641,-30.386 -30.995,-28.423L-30.995,-32.687L-39.589,-32.687C-42.533,-32.687 -44.919,-30.301 -44.919,-27.357L-44.919,-24.558L-39.589,-24.558L-39.589,0L-30.995,0L-30.995,-21.995C-29.709,-23.822 -27.205,-25.852 -24.227,-25.852C-20.708,-25.852 -19.354,-23.686 -19.354,-20.641L-19.354,0L-10.692,0L-10.692,-22.062C-9.474,-23.822 -6.971,-25.852 -3.925,-25.852C-0.405,-25.852 0.947,-23.686 0.947,-20.641L0.947,0L9.61,0L9.61,-23.619C9.61,-30.318 6.022,-33.499 0,-33.499" style="fill:rgb(158,204,59);fill-rule:nonzero;"/>
            </g>
            <g transform="matrix(1,0,0,1,459.401,344.371)">
                <path d="M5.33,-32.687C2.386,-32.687 0,-30.301 0,-27.357L0,-24.558L5.33,-24.558L5.33,0L13.924,0L13.924,-32.687L5.33,-32.687Z" style="fill:rgb(158,204,59);fill-rule:nonzero;"/>
            </g>
            <g transform="matrix(1,0,0,1,-1131.68,131.875)">
                <path d="M1411.62,194.496C1411.62,191.788 1412.69,189.191 1414.61,187.276C1417.09,184.795 1420.21,181.673 1420.21,181.673L1420.21,184.073C1421.57,182.11 1425.9,178.997 1430.91,178.997C1435.71,178.997 1438.76,181.23 1439.98,184.953C1441.87,181.975 1446.2,178.997 1451.21,178.997C1457.23,178.997 1460.82,182.178 1460.82,188.877L1460.82,212.496L1452.15,212.496L1452.15,191.855C1452.15,188.81 1450.8,186.644 1447.28,186.644C1444.24,186.644 1441.73,188.674 1440.52,190.434L1440.52,212.496L1431.85,212.496L1431.85,191.855C1431.85,188.81 1430.5,186.644 1426.98,186.644C1424,186.644 1421.5,188.674 1420.21,190.501L1420.21,212.496L1411.62,212.496L1411.62,194.496Z" style="fill:white;"/>
            </g>
            <g transform="matrix(1,0,0,1,-1131.68,131.875)">
                <path d="M1420.21,179.809C1420.21,179.809 1415.72,183.926 1413.23,186.207C1412.19,187.163 1410.85,187.723 1409.43,187.789C1407.96,187.859 1406.29,187.938 1406.29,187.938L1406.29,185.139C1406.29,182.195 1408.67,179.809 1411.62,179.809L1420.21,179.809Z" style="fill:rgb(158,204,59);"/>
            </g>
            <g transform="matrix(1,0,0,1,374.745,344.371)">
                <path d="M0,-33.499C-5.346,-33.499 -9.339,-30.927 -11.438,-28.423L-11.438,-32.687L-20.032,-32.687C-23.002,-32.687 -25.41,-30.279 -25.41,-27.309C-25.41,-25.798 -25.41,-24.558 -25.41,-24.558L-20.031,-24.558L-20.031,0L-11.438,0L-11.438,-21.995C-10.016,-23.957 -7.377,-25.852 -3.992,-25.852C-0.338,-25.852 2.03,-24.295 2.03,-19.761L2.03,0L10.625,0L10.625,-23.078C10.625,-29.438 7.173,-33.499 0,-33.499" style="fill:white;fill-rule:nonzero;"/>
            </g>
            <g transform="matrix(1,0,0,1,405.581,310.398)">
                <path d="M0,27.137C-1.895,27.137 -2.977,25.581 -2.977,23.551L-2.977,8.798L3.654,8.798L3.654,1.286L-2.977,1.286L-2.977,-7.647L-8.285,-7.647C-10.138,-7.647 -11.64,-6.145 -11.64,-4.293L-11.64,1.286L-17.054,1.286L-17.054,8.798L-11.64,8.798L-11.64,25.852C-11.64,31.671 -8.392,34.784 -2.368,34.784C1.219,34.784 3.52,33.837 4.805,32.687L2.978,26.19C2.505,26.663 1.286,27.137 0,27.137" style="fill:white;fill-rule:nonzero;"/>
            </g>
            <g transform="matrix(1,0,0,1,332.263,344.371)">
                <path d="M5.33,-32.687C2.386,-32.687 0,-30.301 0,-27.357L0,-24.558L5.33,-24.558L5.33,0L13.925,0L13.925,-32.687L5.33,-32.687Z" style="fill:white;fill-rule:nonzero;"/>
            </g>
            <g transform="matrix(1,0,0,1,435.932,357.573)">
                <path d="M0,-45.889L-7.409,-20.315L-13.623,-45.889L-23.899,-45.889L-13.861,-15.057L-8.843,-15.057L-10.276,-9.8C-11.057,-6.853 -13.623,-6.692 -13.623,-6.692L-18.881,-6.692L-18.881,0L-9.799,0C-5.208,0 -3.346,-5.736 -3.346,-5.736L8.604,-45.889L0,-45.889Z" style="fill:white;fill-rule:nonzero;"/>
            </g>
            <g transform="matrix(1,0,0,1,0.00035,31.2566)">
                <text x="299.871px" y="326.548px" style="font-family:'ProximaNova-Bold', '偲潸業愠乯癡';font-weight:700;font-size:8.15px;fill:rgb(158,204,59);">T<tspan x="305.226px 311.844px 317.158px 320.19px 326.229px 331.91px 337.224px 342.889px 348.244px 351.496px 357.348px 362.662px 365.694px 371.016px 376.387px 382.948px 389.68px 392.932px " y="326.548px 326.548px 326.548px 326.548px 326.548px 326.548px 326.548px 326.548px 326.548px 326.548px 326.548px 326.548px 326.548px 326.548px 326.548px 326.548px 326.548px 326.548px ">HE CREATIVE STUDIO</tspan></text>
            </g>
            <g transform="matrix(1,0,0,1,330.689,307.511)">
                <path d="M0,-6.381C0.275,-6.365 0.681,-6.291 1.211,-6.051C1.288,-5.628 1.341,-5.484 1.351,-5.454L1.628,-5.14C1.625,-5.15 1.354,-6.01 1.352,-6.402C1.513,-6.387 1.956,-6.303 2.708,-5.869C2.725,-5.2 2.936,-4.547 2.951,-4.491L3.207,-4.117C3.085,-4.557 2.808,-5.737 2.912,-6.151C3.131,-6.128 3.888,-6.002 4.588,-5.38C4.446,-4.558 4.394,-3.763 4.381,-3.568L4.526,-3.005C4.569,-3.655 4.709,-5.327 4.874,-5.794C5.072,-5.65 5.583,-5.267 6.231,-4.674C5.995,-3.894 5.829,-2.577 5.785,-2.202L5.939,-1.935C6.061,-2.956 6.318,-4.591 6.524,-4.919C6.567,-4.886 6.63,-4.838 6.702,-4.774C6.39,-3.242 6.991,-2.055 7.331,-1.535L7.291,-1.245L7.419,-0.953L7.475,-1.331C7.515,-1.279 7.539,-1.25 7.541,-1.248C7.918,-0.76 7.889,-0.347 7.828,0.021L3.416,-3.458L-0.218,-6.385C-0.149,-6.392 -0.12,-6.388 0,-6.381" style="fill:rgb(39,144,108);fill-rule:nonzero;"/>
            </g>
            <g transform="matrix(1,0,0,1,338.831,298.983)">
                <path d="M0,9.023L0.118,8.89L0.182,8.818C0.193,8.814 0.204,8.81 0.216,8.805C0.308,8.768 0.399,8.731 0.491,8.693L3.98,4.542L8.951,-1.272C8.967,-1.202 8.966,-1.191 8.976,-1.081C9.007,-0.727 8.979,-0.171 8.692,0.548C8.105,0.589 7.909,0.638 7.869,0.646L7.465,0.962C7.478,0.96 8.655,0.729 9.21,0.779C9.212,0.986 9.159,1.55 8.655,2.467C7.711,2.396 6.819,2.579 6.742,2.591L6.251,2.872C6.854,2.774 8.483,2.578 9.084,2.771C9.083,3.052 9.018,4.018 8.239,4.84C7.057,4.543 5.925,4.364 5.647,4.321L4.872,4.432C5.799,4.577 8.184,4.991 8.868,5.27C8.694,5.508 8.227,6.118 7.483,6.877C6.346,6.462 4.459,6.065 3.923,5.955L3.567,6.119C5.029,6.418 7.379,6.98 7.873,7.292C7.672,7.557 6.947,8.391 5.757,8.438L2.789,7.778L2.396,7.904L5.722,8.668C5.993,8.828 6.128,8.942 6.192,9.01C3.971,10.295 2.013,9.175 1.993,9.163C1.283,8.81 0.723,8.932 0.321,9.053C0.242,9.094 0.161,9.137 0.078,9.18L-0.059,9.064C-0.036,9.054 -0.016,9.041 0,9.023" style="fill:rgb(130,195,65);fill-rule:nonzero;"/>
            </g>
            <g transform="matrix(1,0,0,1,345.893,307.302)">
                <path d="M0,-9.106C0.061,-8.534 0.046,-8.337 0.045,-8.297L-0.203,-7.854C-0.203,-7.866 -0.176,-9.039 -0.323,-9.563C-0.533,-9.529 -1.092,-9.379 -1.929,-8.734C-1.691,-7.839 -1.72,-6.949 -1.719,-6.874L-1.915,-6.352C-1.924,-6.95 -2.011,-8.549 -2.31,-9.093C-2.593,-9.044 -3.556,-8.811 -4.249,-7.919C-3.741,-6.834 -3.363,-5.777 -3.271,-5.518L-3.247,-4.753C-3.557,-5.618 -4.391,-7.839 -4.792,-8.448C-5.002,-8.239 -5.534,-7.683 -6.171,-6.835C-5.553,-5.814 -4.821,-4.07 -4.617,-3.573L-4.72,-3.203C-5.277,-4.557 -6.255,-6.717 -6.656,-7.137C-6.889,-6.898 -7.603,-6.055 -7.44,-4.902L-6.257,-2.165L-6.314,-1.764L-7.667,-4.828C-7.876,-5.061 -8.015,-5.171 -8.094,-5.221C-9.001,-2.859 -7.528,-1.173 -7.514,-1.156C-6.957,-0.438 -7.166,0.157 -7.223,0.568L1.854,-9.663C1.546,-9.674 0.884,-9.631 0,-9.106" style="fill:rgb(158,204,59);fill-rule:nonzero;"/>
            </g>
            <g transform="matrix(1,0,0,1,330.986,308.154)">
                <path d="M0,-5.636C0.44,-5.633 0.596,-5.607 0.626,-5.603L0.99,-5.389C0.98,-5.39 0.066,-5.505 -0.331,-5.442C-0.288,-5.289 -0.129,-4.877 0.437,-4.227C1.115,-4.324 1.811,-4.232 1.869,-4.226L2.29,-4.043C1.826,-4.086 0.587,-4.153 0.187,-3.983C0.247,-3.777 0.502,-3.07 1.249,-2.502C2.055,-2.777 2.849,-2.962 3.043,-3.007L3.637,-2.961C2.987,-2.811 1.321,-2.394 0.878,-2.157C1.057,-1.99 1.53,-1.564 2.239,-1.04C2.986,-1.399 4.289,-1.781 4.66,-1.886L4.956,-1.783C3.945,-1.494 2.337,-0.97 2.041,-0.717C2.245,-0.532 2.956,0.047 3.841,0.025L5.882,-0.6L6.198,-0.526L3.916,0.193C3.75,0.323 3.676,0.414 3.643,0.466C5.55,1.306 6.75,0.39 6.763,0.381C7.279,0.041 7.654,0.231 7.979,0.305L-0.576,-6.942C-0.562,-6.722 -0.477,-6.31 0,-5.636" style="fill:rgb(46,101,50);fill-rule:nonzero;"/>
            </g>
            <g transform="matrix(1,0,0,1,0.00035,17.5326)">
                <rect x="447.485" y="281.824" width="8.636" height="45.352" style="fill:rgb(158,204,59);"/>
            </g>
            <g transform="matrix(0,1,1,0,469.006,298.031)">
                <path d="M5.134,-5.202C2.279,-5.202 0.034,-2.822 0.034,-0.034C0.034,2.821 2.279,5.134 5.134,5.134C7.989,5.134 10.302,2.821 10.302,-0.034C10.302,-2.822 7.989,-5.202 5.134,-5.202" style="fill:rgb(158,204,59);fill-rule:nonzero;"/>
            </g>
            <g transform="matrix(1,0,0,1,550.829,338.656)">
                <path d="M0,-20.737C-5.371,-20.737 -7.683,-16.725 -8.091,-13.462L8.092,-13.462C7.888,-16.59 5.712,-20.737 0,-20.737M-16.998,-10.402C-16.998,-19.922 -9.995,-27.604 0,-27.604C9.791,-27.604 16.454,-20.261 16.454,-9.518L16.454,-7.615L-7.955,-7.615C-7.411,-3.466 -4.079,0 1.496,0C4.284,0 8.159,-1.223 10.268,-3.263L14.075,2.313C10.812,5.304 5.644,6.867 0.544,6.867C-9.451,6.867 -16.998,0.137 -16.998,-10.402" style="fill:rgb(158,204,59);fill-rule:nonzero;"/>
            </g>
        </g>
    </g>
</svg>
