<svg id="_001-shutter" data-name="001-shutter" xmlns="http://www.w3.org/2000/svg" width="512" height="512" viewBox="0 0 512 512">
  <g id="Group_9" data-name="Group 9">
    <g id="Group_8" data-name="Group 8">
      <path id="Path_32" data-name="Path 32" d="M256,0C114.837,0,0,114.837,0,256S114.837,512,256,512,512,397.163,512,256,397.163,0,256,0Zm0,490.667C126.613,490.667,21.333,385.387,21.333,256S126.613,21.333,256,21.333,490.667,126.613,490.667,256,385.387,490.667,256,490.667Z" fill="#9ecc3b"/>
    </g>
  </g>
  <g id="Group_11" data-name="Group 11">
    <g id="Group_10" data-name="Group 10">
      <path id="Path_33" data-name="Path 33" d="M481.835,341.333H203.6a10.667,10.667,0,1,0,0,21.334H481.834a10.667,10.667,0,0,0,0-21.334Z" fill="#9ecc3b"/>
    </g>
  </g>
  <g id="Group_13" data-name="Group 13">
    <g id="Group_12" data-name="Group 12">
      <path id="Path_34" data-name="Path 34" d="M296.213,494.123,158.229,249.771a10.675,10.675,0,1,0-18.581,10.517L277.611,504.64a10.712,10.712,0,0,0,9.3,5.419,10.531,10.531,0,0,0,5.269-1.387A10.689,10.689,0,0,0,296.213,494.123Z" fill="#9ecc3b"/>
    </g>
  </g>
  <g id="Group_15" data-name="Group 15">
    <g id="Group_14" data-name="Group 14">
      <path id="Path_35" data-name="Path 35" d="M207.915,150.7a10.685,10.685,0,0,0-14.528,4.053L53.7,402.219a10.679,10.679,0,0,0,4.032,14.549,10.828,10.828,0,0,0,5.248,1.365,10.653,10.653,0,0,0,9.28-5.419L211.947,165.247A10.678,10.678,0,0,0,207.915,150.7Z" fill="#9ecc3b"/>
    </g>
  </g>
  <g id="Group_17" data-name="Group 17">
    <g id="Group_16" data-name="Group 16">
      <path id="Path_36" data-name="Path 36" d="M308.416,149.333H30.635a10.667,10.667,0,1,0,0,21.334H308.4a10.667,10.667,0,1,0,.021-21.334Z" fill="#9ecc3b"/>
    </g>
  </g>
  <g id="Group_19" data-name="Group 19">
    <g id="Group_18" data-name="Group 18">
      <path id="Path_37" data-name="Path 37" d="M372.437,251.541,234.517,7.317a10.675,10.675,0,1,0-18.581,10.517l137.9,244.224a10.712,10.712,0,0,0,9.3,5.419,10.531,10.531,0,0,0,5.269-1.387A10.689,10.689,0,0,0,372.437,251.541Z" fill="#9ecc3b"/>
    </g>
  </g>
  <g id="Group_21" data-name="Group 21">
    <g id="Group_20" data-name="Group 20">
      <path id="Path_38" data-name="Path 38" d="M454.507,95.531a10.668,10.668,0,0,0-14.549,4.032l-139.9,247.189a10.675,10.675,0,0,0,18.581,10.517l139.9-247.189A10.69,10.69,0,0,0,454.507,95.531Z" fill="#9ecc3b"/>
    </g>
  </g>
</svg>
